<?xml version="1.0" encoding="iso-8859-1"?>
<!-- Generator: Adobe Illustrator 19.0.0, SVG Export Plug-In . SVG Version: 6.00 Build 0)  -->
<svg version="1.1" id="Layer_1" xmlns="http://www.w3.org/2000/svg" xmlns:xlink="http://www.w3.org/1999/xlink" x="0px" y="0px"
	 viewBox="0 0 512 512" style="enable-background:new 0 0 512 512;" xml:space="preserve">
<g transform="translate(1 1)">
	<g>
		<polygon style="fill:#FCC309;" points="216.6,58.733 250.733,58.733 250.733,7.533 216.6,7.533 		"/>
		<polygon style="fill:#FCC309;" points="139.8,58.733 173.933,58.733 173.933,7.533 139.8,7.533 		"/>
	</g>
	<polygon style="fill:#FFDD09;" points="114.2,297.667 284.867,297.667 284.867,58.733 114.2,58.733 	"/>
	<polygon style="fill:#FD9808;" points="259.267,297.667 284.867,297.667 284.867,58.733 259.267,58.733 	"/>
	<polygon style="fill:#FFFFFF;" points="114.2,297.667 139.8,297.667 139.8,58.733 114.2,58.733 	"/>
	<polygon style="fill:#FFDD09;" points="156.867,331.8 242.2,331.8 242.2,297.667 156.867,297.667 	"/>
	<polygon style="fill:#FD9808;" points="225.133,331.8 242.2,331.8 242.2,297.667 225.133,297.667 	"/>
	<g>
		<polygon style="fill:#FFFFFF;" points="156.867,331.8 173.933,331.8 173.933,297.667 156.867,297.667 		"/>
		<polygon style="fill:#FFFFFF;" points="139.8,58.733 156.867,58.733 156.867,7.533 139.8,7.533 		"/>
	</g>
	<polygon style="fill:#FD9808;" points="233.667,58.733 250.733,58.733 250.733,7.533 233.667,7.533 	"/>
	<path style="fill:#FFDD09;" d="M395.8,502.467h-51.2c0-33.28-26.453-59.733-59.733-59.733c-61.44,0-110.933-49.493-110.933-110.933
		h51.2c0,33.28,26.453,59.733,59.733,59.733C346.307,391.533,395.8,441.027,395.8,502.467"/>
	<path style="fill:#FD9808;" d="M284.867,391.533c-33.28,0-59.733-26.453-59.733-59.733h-25.6c0,33.28,26.453,59.733,59.733,59.733
		c61.44,0,110.933,49.493,110.933,110.933h25.6C395.8,441.027,346.307,391.533,284.867,391.533"/>
	<path d="M284.867,306.2H114.2c-5.12,0-8.533-3.413-8.533-8.533V58.733c0-5.12,3.413-8.533,8.533-8.533h170.667
		c5.12,0,8.533,3.413,8.533,8.533v238.933C293.4,302.787,289.987,306.2,284.867,306.2z M122.733,289.133h153.6V67.267h-153.6
		V289.133z"/>
	<path d="M173.933,67.267H139.8c-5.12,0-8.533-3.413-8.533-8.533v-51.2c0-5.12,3.413-8.533,8.533-8.533h34.133
		c5.12,0,8.533,3.413,8.533,8.533v51.2C182.467,63.853,179.053,67.267,173.933,67.267z M148.333,50.2H165.4V16.067h-17.067V50.2z"/>
	<path d="M250.733,67.267H216.6c-5.12,0-8.533-3.413-8.533-8.533v-51.2c0-5.12,3.413-8.533,8.533-8.533h34.133
		c5.12,0,8.533,3.413,8.533,8.533v51.2C259.267,63.853,255.853,67.267,250.733,67.267z M225.133,50.2H242.2V16.067h-17.067V50.2z"/>
	<path d="M242.2,340.333h-85.333c-5.12,0-8.533-3.413-8.533-8.533v-34.133c0-5.12,3.413-8.533,8.533-8.533H242.2
		c5.12,0,8.533,3.413,8.533,8.533V331.8C250.733,336.92,247.32,340.333,242.2,340.333z M165.4,323.267h68.267V306.2H165.4V323.267z"
		/>
	<path d="M173.933,237.933H114.2c-5.12,0-8.533-3.413-8.533-8.533c0-5.12,3.413-8.533,8.533-8.533h59.733
		c5.12,0,8.533,3.413,8.533,8.533C182.467,234.52,179.053,237.933,173.933,237.933z"/>
	<path d="M156.867,272.067H114.2c-5.12,0-8.533-3.413-8.533-8.533c0-5.12,3.413-8.533,8.533-8.533h42.667
		c5.12,0,8.533,3.413,8.533,8.533C165.4,268.653,161.987,272.067,156.867,272.067z"/>
	<path d="M284.867,135.533h-59.733c-5.12,0-8.533-3.413-8.533-8.533s3.413-8.533,8.533-8.533h59.733c5.12,0,8.533,3.413,8.533,8.533
		S289.987,135.533,284.867,135.533z"/>
	<path d="M284.867,101.4H242.2c-5.12,0-8.533-3.413-8.533-8.533s3.413-8.533,8.533-8.533h42.667c5.12,0,8.533,3.413,8.533,8.533
		S289.987,101.4,284.867,101.4z"/>
	<path d="M395.8,511h-51.2c-5.12,0-8.533-3.413-8.533-8.533c0-28.16-23.04-51.2-51.2-51.2c-65.707,0-119.467-53.76-119.467-119.467
		c0-5.12,3.413-8.533,8.533-8.533h51.2c5.12,0,8.533,3.413,8.533,8.533c0,28.16,23.04,51.2,51.2,51.2
		c65.707,0,119.467,53.76,119.467,119.467C404.333,507.587,400.92,511,395.8,511z M352.28,493.933h34.133
		c-4.267-52.907-48.64-93.867-102.4-93.867c-34.987,0-63.147-26.453-67.413-59.733h-34.133c4.267,52.907,48.64,93.867,102.4,93.867
		C319.853,434.2,348.013,460.653,352.28,493.933z"/>
</g>
<g>
</g>
<g>
</g>
<g>
</g>
<g>
</g>
<g>
</g>
<g>
</g>
<g>
</g>
<g>
</g>
<g>
</g>
<g>
</g>
<g>
</g>
<g>
</g>
<g>
</g>
<g>
</g>
<g>
</g>
</svg>
