<?xml version="1.0" encoding="iso-8859-1"?>
<!-- Generator: Adobe Illustrator 19.0.0, SVG Export Plug-In . SVG Version: 6.00 Build 0)  -->
<svg version="1.1" id="Layer_1" xmlns="http://www.w3.org/2000/svg" xmlns:xlink="http://www.w3.org/1999/xlink" x="0px" y="0px"
	 viewBox="0 0 512.853 512.853" style="enable-background:new 0 0 512.853 512.853;" xml:space="preserve">
<g transform="translate(1 1)">
	<g>
		<g>
			<path d="M246.467,191.64v102.4c0,23.893,18.773,42.667,42.667,42.667c23.893,0,42.667-18.773,42.667-42.667v-102.4
				c21.333-16.213,34.133-40.96,34.133-68.267c0-32.427-17.92-61.44-46.933-75.947c-2.56-1.707-5.973-1.707-8.533,0
				c-2.56,1.707-4.267,5.12-4.267,7.68v68.267h-34.133V55.107c0-2.56-1.707-5.973-3.413-7.68c-2.56-0.853-5.973-1.707-8.533,0
				c-29.867,14.507-47.787,43.52-47.787,75.947C212.333,150.68,225.133,175.427,246.467,191.64z M255,70.467v61.44
				c0,5.12,3.413,8.533,8.533,8.533h51.2c5.12,0,8.533-3.413,8.533-8.533v-61.44c16.213,12.8,25.6,32.427,25.6,52.907
				c0,23.04-11.947,44.373-30.72,57.173c-1.707,1.707-3.413,4.267-3.413,6.827V294.04c0,14.507-11.093,25.6-25.6,25.6
				c-14.507,0-25.6-11.093-25.6-25.6V187.373c0-2.56-0.853-5.12-3.413-6.827c-19.627-12.8-30.72-34.133-30.72-57.173
				C229.4,102.04,238.787,83.267,255,70.467z"/>
			<path d="M471.747,276.12c-22.187-1.707-40.107-11.947-50.347-28.16l-2.56-4.267c-12.8-21.333-35.84-34.133-60.587-35.84
				c-5.12-0.853-9.387,2.56-9.387,7.68c-0.853,5.12,2.56,9.387,7.68,9.387c19.627,0.853,36.693,11.947,46.933,28.16l2.56,4.267
				c12.8,21.333,36.693,34.987,64,36.693c13.653,0.853,23.893,11.947,23.893,25.6v59.733c0,14.507-11.093,25.6-25.6,25.6h-17.797
				c-2.881-16.98-14.192-31.177-29.444-38.106c-0.338-0.155-0.674-0.314-1.017-0.462c-0.214-0.092-0.432-0.175-0.648-0.264
				c-0.553-0.229-1.109-0.453-1.672-0.662c-0.152-0.056-0.306-0.108-0.459-0.163c-0.625-0.226-1.256-0.442-1.893-0.644
				c-0.138-0.044-0.276-0.085-0.415-0.127c-0.648-0.199-1.302-0.387-1.962-0.56c-0.146-0.038-0.292-0.076-0.439-0.113
				c-0.648-0.164-1.301-0.316-1.96-0.455c-0.166-0.035-0.331-0.071-0.497-0.104c-0.636-0.128-1.277-0.242-1.922-0.346
				c-0.191-0.031-0.381-0.064-0.573-0.093c-0.621-0.093-1.248-0.17-1.877-0.24c-0.213-0.024-0.425-0.052-0.639-0.074
				c-0.629-0.062-1.263-0.107-1.899-0.146c-0.21-0.013-0.417-0.033-0.628-0.043c-0.837-0.041-1.68-0.065-2.529-0.065
				c-0.849,0-1.692,0.024-2.529,0.065c-0.21,0.01-0.418,0.03-0.628,0.043c-0.636,0.039-1.27,0.084-1.899,0.146
				c-0.214,0.021-0.426,0.05-0.639,0.074c-0.629,0.07-1.256,0.148-1.877,0.24c-0.192,0.029-0.382,0.062-0.574,0.093
				c-0.645,0.104-1.285,0.218-1.921,0.345c-0.167,0.034-0.332,0.069-0.498,0.104c-0.658,0.139-1.311,0.291-1.959,0.455
				c-0.146,0.037-0.293,0.074-0.439,0.113c-0.66,0.174-1.314,0.361-1.962,0.561c-0.138,0.042-0.276,0.083-0.414,0.127
				c-0.638,0.202-1.268,0.418-1.894,0.644c-0.152,0.055-0.305,0.107-0.457,0.163c-0.564,0.21-1.121,0.434-1.675,0.664
				c-0.215,0.089-0.432,0.172-0.645,0.263c-0.343,0.148-0.68,0.308-1.019,0.463c-15.25,6.93-26.561,21.126-29.441,38.105H177.47
				c-2.881-16.979-14.19-31.174-29.439-38.104c-0.34-0.156-0.677-0.316-1.021-0.464c-0.213-0.091-0.43-0.174-0.645-0.263
				c-0.554-0.229-1.111-0.453-1.675-0.664c-0.151-0.056-0.305-0.108-0.457-0.163c-0.626-0.226-1.257-0.442-1.894-0.644
				c-0.137-0.043-0.276-0.084-0.414-0.127c-0.648-0.199-1.302-0.387-1.962-0.561c-0.146-0.038-0.292-0.076-0.439-0.113
				c-0.648-0.164-1.301-0.316-1.96-0.455c-0.166-0.035-0.331-0.071-0.497-0.104c-0.636-0.128-1.277-0.242-1.922-0.346
				c-0.191-0.031-0.381-0.064-0.573-0.093c-0.621-0.093-1.248-0.17-1.877-0.24c-0.213-0.024-0.425-0.052-0.639-0.074
				c-0.629-0.062-1.263-0.107-1.899-0.146c-0.21-0.013-0.417-0.033-0.628-0.043c-0.837-0.041-1.68-0.065-2.529-0.065
				c-0.849,0-1.692,0.024-2.529,0.065c-0.21,0.01-0.418,0.03-0.628,0.043c-0.636,0.039-1.27,0.084-1.899,0.146
				c-0.214,0.021-0.426,0.05-0.639,0.074c-0.629,0.07-1.256,0.148-1.877,0.24c-0.192,0.029-0.382,0.062-0.573,0.093
				c-0.645,0.104-1.286,0.218-1.922,0.346c-0.166,0.033-0.332,0.069-0.497,0.104c-0.659,0.139-1.312,0.291-1.96,0.455
				c-0.146,0.037-0.293,0.074-0.439,0.113c-0.66,0.174-1.313,0.361-1.962,0.56c-0.138,0.042-0.277,0.083-0.415,0.127
				c-0.637,0.202-1.267,0.418-1.893,0.644c-0.153,0.055-0.307,0.107-0.459,0.163c-0.563,0.21-1.119,0.433-1.672,0.662
				c-0.216,0.089-0.434,0.172-0.648,0.264c-0.342,0.148-0.678,0.307-1.017,0.462c-15.252,6.929-26.563,21.126-29.444,38.106H41.667
				c-14.507,0-25.6-11.093-25.6-25.6v-38.4c0-12.8,9.387-23.893,22.187-24.747l52.053-6.827
				c37.547-4.267,71.68-22.187,96.427-50.347l12.8-14.507c6.827-8.533,16.213-17.067,24.747-20.48
				c4.267-1.707,6.827-6.827,5.12-11.093c-1.707-4.267-6.827-6.827-11.093-5.12c-12.8,4.267-23.893,14.507-32.427,24.747
				l-11.947,13.653C151.747,271,121.88,287.213,88.6,291.48l-52.053,6.827C15.213,300.867-1,319.64-1,340.973v38.4
				c0,23.893,18.773,42.667,42.667,42.667H76.53c4.095,24.134,25.217,42.667,50.47,42.667s46.375-18.533,50.47-42.667h172.127
				c4.095,24.134,25.217,42.667,50.47,42.667c25.253,0,46.375-18.533,50.47-42.667h17.797c23.893,0,42.667-18.773,43.52-43.52
				v-59.733C511.853,296.6,493.933,277.827,471.747,276.12z M127,447.64c-18.773,0-34.133-15.36-34.133-34.133
				c0-18.773,15.36-34.133,34.133-34.133c18.773,0,34.133,15.36,34.133,34.133C161.133,432.28,145.773,447.64,127,447.64z
				 M400.067,447.64c-18.773,0-34.133-15.36-34.133-34.133c0-18.773,15.36-34.133,34.133-34.133
				c18.773,0,34.133,15.36,34.133,34.133C434.2,432.28,418.84,447.64,400.067,447.64z"/>
		</g>
	</g>
</g>
<g>
</g>
<g>
</g>
<g>
</g>
<g>
</g>
<g>
</g>
<g>
</g>
<g>
</g>
<g>
</g>
<g>
</g>
<g>
</g>
<g>
</g>
<g>
</g>
<g>
</g>
<g>
</g>
<g>
</g>
</svg>
