<?xml version="1.0" encoding="iso-8859-1"?>
<!-- Generator: Adobe Illustrator 19.0.0, SVG Export Plug-In . SVG Version: 6.00 Build 0)  -->
<svg version="1.1" id="Layer_1" xmlns="http://www.w3.org/2000/svg" xmlns:xlink="http://www.w3.org/1999/xlink" x="0px" y="0px"
	 viewBox="0 0 503.607 503.607" style="enable-background:new 0 0 503.607 503.607;" xml:space="preserve">
<g transform="translate(1 1)">
	<g>
		<polygon style="fill:#FFDD09;" points="197.505,423.708 78.318,304.521 101.82,281.02 221.007,400.207 		"/>
		<path style="fill:#FFDD09;" d="M347.747,275.144c-10.911,0-21.823-4.197-29.377-12.59l-71.344-71.344
			c-9.233-9.233-26.02-9.233-35.252,0c-3.357,3.357-8.393,3.357-11.751,0s-3.357-8.393,0-11.751
			c7.554-7.554,18.466-12.59,29.377-12.59s21.823,4.197,29.377,12.59l71.344,71.344c10.072,10.072,26.02,10.072,35.252,0
			c3.357-3.357,8.393-3.357,11.751,0c3.357,3.357,3.357,8.393,0,11.751C368.731,270.948,358.659,275.144,347.747,275.144z"/>
		<path style="fill:#FFDD09;" d="M299.905,322.148c-10.911,0-21.823-4.197-29.377-12.59l-71.344-71.344
			c-9.233-9.233-26.02-9.233-35.252,0c-3.357,3.357-8.393,3.357-11.751,0s-3.357-8.393,0-11.751
			c7.554-7.554,18.466-12.59,29.377-12.59s21.823,4.197,29.377,12.59l71.344,71.344c9.233,9.233,26.02,9.233,35.252,0
			c3.357-3.357,8.393-3.357,11.751,0s3.357,8.393,0,11.751C321.728,317.951,311.656,322.148,299.905,322.148z"/>
		<path style="fill:#FFDD09;" d="M252.902,369.99c-10.911,0-21.823-4.197-29.377-12.59l-71.344-71.344
			c-9.233-9.233-26.02-9.233-35.252,0c-3.357,3.357-8.393,3.357-11.751,0s-3.357-8.393,0-11.751
			c7.554-7.554,18.466-12.59,29.377-12.59c10.911,0,21.823,4.197,29.377,12.59l71.344,71.344c9.233,9.233,26.02,9.233,35.252,0
			c3.357-3.357,8.393-3.357,11.751,0c3.357,3.357,3.357,8.393,0,11.751C274.725,365.793,263.813,369.99,252.902,369.99z"/>
		<path style="fill:#FFDD09;" d="M108.534,476.587c-22.662,22.662-60.433,22.662-83.095,0c-22.662-22.662-22.662-60.433,0-83.095
			c22.662-22.662,60.433-22.662,83.095,0C131.197,416.993,131.197,453.925,108.534,476.587"/>
	</g>
	<path style="fill:#54C9FD;" d="M84.193,453.085c-10.072,10.072-26.02,10.072-35.252,0c-10.072-10.072-10.072-26.02,0-35.252
		c10.072-10.072,26.02-10.072,35.252,0C94.266,427.905,94.266,443.013,84.193,453.085"/>
	<polygon style="fill:#FFDD09;" points="190.79,369.99 132.036,311.236 273.885,168.548 333.479,228.141 	"/>
	<polygon style="fill:#FD9808;" points="315.852,217.229 175.682,357.4 189.951,371.669 332.639,228.98 	"/>
	<polygon style="fill:#FFFFFF;" points="268.01,171.905 127.839,312.075 142.108,326.344 284.797,183.656 	"/>
	<g>
		<polygon style="fill:#FFDD09;" points="339.354,186.174 315.852,162.672 417.413,61.111 440.915,84.613 		"/>
		<polygon style="fill:#FFDD09;" points="459.38,102.239 399.787,42.646 423.288,19.144 482.882,78.738 		"/>
	</g>
	<polygon style="fill:#FD9808;" points="466.934,66.148 444.272,88.81 456.862,101.4 480.364,77.898 	"/>
	<polygon style="fill:#FFDD09;" points="471.131,66.987 435.039,30.895 459.38,7.393 494.633,42.646 	"/>
	<polygon style="fill:#FD9808;" points="471.131,66.148 494.633,42.646 481.203,28.377 457.702,51.879 	"/>
	<polygon style="fill:#FFDD09;" points="363.695,257.518 244.508,138.331 268.01,114.83 387.197,234.016 	"/>
	<polygon style="fill:#FD9808;" points="205.898,385.098 184.075,406.921 200.862,423.708 224.364,400.207 	"/>
	<polygon style="fill:#FFFFFF;" points="98.462,279.341 76.639,301.164 93.426,317.951 116.928,294.449 	"/>
	<path style="fill:#FFDD09;" d="M108.534,394.331c11.751,11.751,17.626,26.859,16.787,41.967l41.967-41.967l-58.754-59.593
		l-41.967,41.967C80.836,376.705,96.784,382.58,108.534,394.331"/>
	<path d="M66.567,502.607c-17.626,0-34.413-6.715-47.843-19.305C6.134,469.872-0.58,453.085-0.58,435.459
		s6.715-34.413,19.305-47.843c13.43-12.59,30.216-19.305,47.843-19.305s34.413,6.715,47.843,19.305
		c12.59,12.59,19.305,29.377,19.305,47.843S127,469.872,114.41,483.302l0,0l0,0C100.98,495.892,84.193,502.607,66.567,502.607z
		 M66.567,385.098c-13.43,0-26.02,5.036-35.252,15.108c-10.072,9.233-15.108,21.823-15.108,35.252
		c0,13.43,5.036,26.02,15.108,35.252c9.233,10.072,21.823,15.108,35.252,15.108s26.02-5.036,35.252-15.108l0,0
		c9.233-9.233,15.108-21.823,15.108-35.252c0-13.43-5.036-26.02-15.108-35.252C92.587,390.134,79.997,385.098,66.567,385.098z"/>
	<path d="M66.567,469.033c-8.393,0-16.787-3.357-23.502-10.072c-13.43-13.43-13.43-34.413,0-47.843s34.413-13.43,47.843,0
		c13.43,13.429,13.43,34.413,0,47.843C83.354,465.675,74.961,469.033,66.567,469.033z M66.567,418.672
		c-4.197,0-8.393,1.679-11.751,5.036c-6.715,6.715-6.715,16.787,0,23.502c6.715,6.715,16.787,6.715,23.502,0
		c6.715-6.715,6.715-16.787,0-23.502C74.961,420.351,70.764,418.672,66.567,418.672z"/>
	<path d="M190.79,378.384c-2.518,0-4.197-0.839-5.875-2.518l-59.593-59.593c-3.357-3.357-3.357-8.393,0-11.751L268.01,161.833
		c3.357-3.357,8.393-3.357,11.751,0l59.593,59.593c3.357,3.357,3.357,8.393,0,11.751L196.666,375.866
		C195.826,377.544,193.308,378.384,190.79,378.384z M143.787,311.236l47.843,47.843l130.938-130.938l-47.843-47.843L143.787,311.236
		z"/>
	<path d="M339.354,194.567c-2.518,0-4.197-0.839-5.875-2.518l-23.502-23.502c-1.679-1.679-2.518-3.357-2.518-5.875
		c0-2.518,0.839-4.197,2.518-5.875L411.538,55.236c1.679-1.679,3.357-2.518,5.875-2.518l0,0c2.518,0,4.197,0.839,5.875,2.518
		l23.502,23.502c3.357,3.357,3.357,8.393,0,11.751L345.229,192.049C343.551,193.728,341.872,194.567,339.354,194.567z
		 M327.603,162.672l11.751,11.751l89.81-89.81l-11.751-11.751L327.603,162.672z"/>
	<path d="M459.38,110.633c-2.518,0-4.197-0.839-5.875-2.518l-59.593-59.593c-1.679-1.679-2.518-3.357-2.518-5.875
		c0-2.518,0.839-4.197,2.518-5.875l23.502-23.502c3.357-3.357,8.393-3.357,11.751,0l59.593,59.593
		c1.679,1.679,2.518,3.357,2.518,5.875s-0.839,4.197-2.518,5.875l-23.502,23.502C463.577,109.793,461.059,110.633,459.38,110.633z
		 M411.538,42.646l47.843,47.843l11.751-11.751l-47.843-47.843L411.538,42.646z"/>
	<path d="M471.131,74.541c-2.518,0-4.197-0.839-5.875-2.518L430.003,36.77c-2.518-1.679-3.357-4.197-3.357-5.875
		c0-2.518,0.839-4.197,2.518-5.875l23.502-23.502c3.357-3.357,8.393-3.357,11.751,0l35.252,35.252c3.357,3.357,3.357,8.393,0,11.751
		l-23.502,23.502C475.328,73.702,472.81,74.541,471.131,74.541z M446.79,30.895l23.502,23.502l11.751-11.751l-23.502-23.502
		L446.79,30.895z"/>
	<path d="M363.695,265.911c-2.518,0-4.197-0.839-5.875-2.518L238.633,145.046c-3.357-3.357-3.357-8.393,0-11.751l23.502-23.502
		c3.357-3.357,8.393-3.357,11.751,0l118.348,118.348c3.357,3.357,3.357,8.393,0,11.751l-23.502,23.502
		C367.892,265.072,365.374,265.911,363.695,265.911z M256.259,138.331l106.597,106.597l11.751-11.751L268.01,126.58L256.259,138.331
		z"/>
	<path d="M197.505,432.102L197.505,432.102c-2.518,0-4.197-0.839-5.875-2.518L72.443,311.236c-3.357-3.357-3.357-8.393,0-11.751
		l23.502-23.502c3.357-3.357,8.393-3.357,11.751,0l118.348,118.348c3.357,3.357,3.357,8.393,0,11.751l-23.502,23.502
		C201.702,431.262,199.184,432.102,197.505,432.102z M90.069,304.521l106.597,106.597l11.751-11.751L101.82,292.77L90.069,304.521z"
		/>
	<path d="M339.354,275.984c-10.911,0-21.823-4.197-29.377-12.59l-71.344-71.344c-9.233-9.233-26.02-9.233-35.252,0
		c-3.357,3.357-8.393,3.357-11.751,0c-3.357-3.357-3.357-8.393,0-11.751c7.554-7.554,18.466-12.59,29.377-12.59
		s21.823,4.197,29.377,12.59l71.344,71.344c10.072,10.072,26.02,10.072,35.252,0c3.357-3.357,8.393-3.357,11.751,0
		s3.357,8.393,0,11.751C361.177,271.787,350.266,275.984,339.354,275.984z"/>
	<path d="M292.351,322.987c-10.911,0-21.823-4.197-29.377-12.59l-71.344-71.344c-9.233-9.233-26.02-9.233-35.252,0
		c-3.357,3.357-8.393,3.357-11.751,0s-3.357-8.393,0-11.751c7.554-7.554,18.466-12.59,29.377-12.59s21.823,4.197,29.377,12.59
		l71.344,71.344c9.233,9.233,26.02,9.233,35.252,0c3.357-3.357,8.393-3.357,11.751,0c3.357,3.357,3.357,8.393,0,11.751
		C314.174,318.79,303.262,322.987,292.351,322.987z"/>
	<path d="M244.508,370.829c-10.911,0-21.823-4.197-29.377-12.59l-71.344-71.344c-9.233-9.233-26.02-9.233-35.252,0
		c-3.357,3.357-8.393,3.357-11.751,0c-3.357-3.357-3.357-8.393,0-11.751c7.554-7.554,18.466-12.59,29.377-12.59
		s21.823,4.197,29.377,12.59l71.344,71.344c10.072,10.072,26.02,10.072,35.252,0c3.357-3.357,8.393-3.357,11.751,0
		c3.357,3.357,3.357,8.393,0,11.751C266.331,366.633,255.42,370.829,244.508,370.829z"/>
	<path d="M125.321,444.692c-0.839,0-2.518,0-3.357-0.839c-3.357-1.679-5.036-4.197-5.036-7.554c0-13.429-5.036-26.859-15.108-36.092
		c-9.233-10.072-21.823-15.108-36.092-15.108c-3.357,0-6.715-1.679-7.554-5.036c-1.679-3.357-0.839-6.715,1.679-9.233l41.967-41.967
		c3.357-3.357,8.393-3.357,11.751,0l59.593,59.593c3.357,3.357,3.357,8.393,0,11.751l-41.967,41.967
		C129.518,443.852,127.839,444.692,125.321,444.692z M84.193,370.829c10.911,3.357,21.823,9.233,30.216,17.626l0,0
		c8.393,8.393,14.269,18.466,17.626,30.216l24.341-24.341l-47.843-47.843L84.193,370.829z"/>
</g>
<g>
</g>
<g>
</g>
<g>
</g>
<g>
</g>
<g>
</g>
<g>
</g>
<g>
</g>
<g>
</g>
<g>
</g>
<g>
</g>
<g>
</g>
<g>
</g>
<g>
</g>
<g>
</g>
<g>
</g>
</svg>
